<svg width="22" height="22" viewBox="0 0 22 22" fill="none" xmlns="http://www.w3.org/2000/svg">
<g id="SVG">
<path id="Vector" d="M19.4464 14.9473H7.3503L7.95765 13.7103L18.0489 13.692C18.3901 13.692 18.6826 13.4483 18.7436 13.1111L20.1411 5.28875C20.1776 5.0836 20.1228 4.87235 19.9887 4.71188C19.9225 4.6329 19.8398 4.56929 19.7465 4.52544C19.6532 4.4816 19.5515 4.45858 19.4484 4.45797L6.61093 4.41531L6.50124 3.89938C6.43218 3.57031 6.13562 3.33063 5.79843 3.33063H2.66015C2.46998 3.33063 2.2876 3.40617 2.15313 3.54064C2.01866 3.67511 1.94312 3.85749 1.94312 4.04766C1.94312 4.23783 2.01866 4.42021 2.15313 4.55468C2.2876 4.68915 2.46998 4.76469 2.66015 4.76469H5.21749L5.69687 7.04375L6.87702 12.7577L5.35765 15.2378C5.27874 15.3443 5.23122 15.4708 5.22045 15.6029C5.20968 15.735 5.2361 15.8674 5.29671 15.9853C5.41858 16.227 5.66437 16.3794 5.93655 16.3794H7.21218C6.94023 16.7406 6.79334 17.1805 6.79374 17.6327C6.79374 18.7823 7.72812 19.7167 8.8778 19.7167C10.0275 19.7167 10.9619 18.7823 10.9619 17.6327C10.9619 17.1797 10.8116 16.7389 10.5434 16.3794H13.8158C13.5438 16.7406 13.3969 17.1805 13.3973 17.6327C13.3973 18.7823 14.3317 19.7167 15.4814 19.7167C16.6311 19.7167 17.5655 18.7823 17.5655 17.6327C17.5655 17.1797 17.4151 16.7389 17.147 16.3794H19.4484C19.8425 16.3794 20.1655 16.0584 20.1655 15.6623C20.1643 15.4724 20.088 15.2906 19.9533 15.1566C19.8186 15.0227 19.6364 14.9474 19.4464 14.9473ZM6.90952 5.82906L18.6055 5.86766L17.4598 12.2823L8.27249 12.2986L6.90952 5.82906ZM8.8778 18.2745C8.52437 18.2745 8.23593 17.9861 8.23593 17.6327C8.23593 17.2792 8.52437 16.9908 8.8778 16.9908C9.23124 16.9908 9.51968 17.2792 9.51968 17.6327C9.51968 17.8029 9.45205 17.9662 9.33168 18.0865C9.2113 18.2069 9.04804 18.2745 8.8778 18.2745ZM15.4814 18.2745C15.128 18.2745 14.8395 17.9861 14.8395 17.6327C14.8395 17.2792 15.128 16.9908 15.4814 16.9908C15.8348 16.9908 16.1233 17.2792 16.1233 17.6327C16.1233 17.8029 16.0556 17.9662 15.9353 18.0865C15.8149 18.2069 15.6516 18.2745 15.4814 18.2745Z" fill="black"/>
</g>
</svg>
